<mxfile host="app.diagrams.net" modified="2022-06-12T10:02:57.711Z" agent="5.0 (Windows NT 10.0; Win64; x64) AppleWebKit/537.36 (KHTML, like Gecko) Chrome/102.0.5005.63 Safari/537.36 Edg/102.0.1245.39" etag="8vWFGgvjveDTtcF1L2k_" version="20.0.0" type="github">
  <diagram id="kBf5p6kNl44_95Un9667" name="第 1 页">
    <mxGraphModel dx="894" dy="642" grid="1" gridSize="10" guides="1" tooltips="1" connect="1" arrows="1" fold="1" page="1" pageScale="1" pageWidth="827" pageHeight="1169" math="0" shadow="0">
      <root>
        <mxCell id="0" />
        <mxCell id="1" parent="0" />
        <mxCell id="U-wrFNITM0R60Ib-3cDE-1" value="导入数据" style="ellipse;whiteSpace=wrap;html=1;fontSize=20;strokeWidth=2;" vertex="1" parent="1">
          <mxGeometry x="340" y="80" width="120" height="80" as="geometry" />
        </mxCell>
        <mxCell id="U-wrFNITM0R60Ib-3cDE-2" value="对数据进行筛选" style="ellipse;whiteSpace=wrap;html=1;fontSize=20;strokeWidth=2;" vertex="1" parent="1">
          <mxGeometry x="340" y="190" width="120" height="80" as="geometry" />
        </mxCell>
        <mxCell id="U-wrFNITM0R60Ib-3cDE-3" value="统计词频" style="ellipse;whiteSpace=wrap;html=1;fontSize=20;strokeWidth=2;" vertex="1" parent="1">
          <mxGeometry x="340" y="290" width="120" height="80" as="geometry" />
        </mxCell>
        <mxCell id="U-wrFNITM0R60Ib-3cDE-4" value="过滤掉低频词" style="ellipse;whiteSpace=wrap;html=1;fontSize=20;strokeWidth=2;" vertex="1" parent="1">
          <mxGeometry x="340" y="390" width="120" height="80" as="geometry" />
        </mxCell>
        <mxCell id="U-wrFNITM0R60Ib-3cDE-5" value="建立词典：单词和编号的对应关系" style="ellipse;whiteSpace=wrap;html=1;fontSize=20;strokeWidth=2;" vertex="1" parent="1">
          <mxGeometry x="310" y="490" width="190" height="125" as="geometry" />
        </mxCell>
        <mxCell id="U-wrFNITM0R60Ib-3cDE-6" value="使用词典建立分词器" style="ellipse;whiteSpace=wrap;html=1;fontSize=20;strokeWidth=2;" vertex="1" parent="1">
          <mxGeometry x="354" y="640" width="120" height="80" as="geometry" />
        </mxCell>
      </root>
    </mxGraphModel>
  </diagram>
</mxfile>
